<?xml version="1.0" encoding="utf-8"?>
<!-- Generator: Adobe Illustrator 27.2.0, SVG Export Plug-In . SVG Version: 6.00 Build 0)  -->
<svg version="1.1" id="Слой_1" xmlns="http://www.w3.org/2000/svg" xmlns:xlink="http://www.w3.org/1999/xlink" x="0px" y="0px"
	 viewBox="0 0 1104 384" style="enable-background:new 0 0 1104 384;" xml:space="preserve">
<style type="text/css">
	.st0{fill:none;}
	.st1{fill:url(#SVGID_1_);}
	.st2{fill:none;stroke:#7BADEB;stroke-opacity:0.4;stroke-dasharray:6,8;}
	.st3{fill:none;stroke:#9CBFF1;stroke-width:2.5;stroke-dasharray:7,9;}
	.st4{fill:none;stroke:#9CBFF1;stroke-width:2.5;stroke-opacity:0.65;stroke-dasharray:7,9;}
	.st5{filter:url(#softShadow);}
	.st6{fill:url(#SVGID_00000077287622965589627390000004686286832552858549_);}
	.st7{fill:none;stroke:#D4E6FF;stroke-width:2.5;}
	.st8{fill:url(#SVGID_00000031924270428377869380000018115316976683965838_);}
	.st9{fill:none;stroke:#D9E9FF;stroke-width:2.5;}
	.st10{enable-background:new    ;}
	.st11{fill:#6D7B96;}
	.st12{fill:url(#SVGID_00000027578187526358996720000015980929287377331903_);}
	.st13{fill:url(#SVGID_00000150793571040367360690000004371209237971586227_);}
	.st14{fill:#AFCFFF;}
	.st15{fill:#D5E7FF;}
	.st16{fill:#B9D7FF;}
	.st17{fill:#E4ECF8;}
	.st18{fill:#A2AFC4;}
	.st19{fill:#EEF4FD;}
	.st20{fill:#9DAABF;}
	.st21{fill:#FFFFFF;filter:url(#Adobe_OpacityMaskFilter);}
	.st22{mask:url(#mask0_2122_670_00000137126756579296750920000018185568583671434160_);}
	.st23{fill:#FFFFFF;}
	.st24{filter:url(#cardShadowRight);}
	.st25{fill:#61708C;}
	.st26{filter:url(#cardShadow);}
</style>
<filter  color-interpolation-filters="sRGB" filterUnits="userSpaceOnUse" height="208" id="softShadow" width="398" x="353" y="88">
	<feFlood  flood-opacity="0" result="BackgroundImageFix"></feFlood>
	<feGaussianBlur  in="BackgroundImageFix" stdDeviation="12"></feGaussianBlur>
	<feComposite  in2="SourceAlpha" operator="in" result="effect1_backgroundBlur_1"></feComposite>
	<feColorMatrix  in="SourceAlpha" result="hardAlpha" type="matrix" values="0 0 0 0 0 0 0 0 0 0 0 0 0 0 0 0 0 0 127 0">
		</feColorMatrix>
	<feOffset  dy="14"></feOffset>
	<feGaussianBlur  stdDeviation="20"></feGaussianBlur>
	<feColorMatrix  type="matrix" values="0 0 0 0 0.0313726 0 0 0 0 0.203922 0 0 0 0 0.501961 0 0 0 0.12 0"></feColorMatrix>
	<feBlend  in2="effect1_backgroundBlur_1" mode="normal" result="effect2_dropShadow_1"></feBlend>
	<feBlend  in="SourceGraphic" in2="effect2_dropShadow_1" mode="normal" result="shape"></feBlend>
</filter>
<filter  color-interpolation-filters="sRGB" filterUnits="userSpaceOnUse" height="122" id="cardShadowRight" width="244" x="569" y="131">
	<feFlood  flood-opacity="0" result="BackgroundImageFix"></feFlood>
	<feGaussianBlur  in="BackgroundImageFix" stdDeviation="8"></feGaussianBlur>
	<feColorMatrix  in="SourceAlpha" result="hardAlpha" type="matrix" values="0 0 0 0 0 0 0 0 0 0 0 0 0 0 0 0 0 0 127 0">
		</feColorMatrix>
	<feOffset  dy="10"></feOffset>
	<feGaussianBlur  stdDeviation="18"></feGaussianBlur>
	<feColorMatrix  type="matrix" values="0 0 0 0 0.0313726 0 0 0 0 0.203922 0 0 0 0 0.501961 0 0 0 0.12 0"></feColorMatrix>
	<feBlend  in2="BackgroundImageFix" mode="normal" result="effect1_dropShadow_1"></feBlend>
	<feBlend  in="SourceGraphic" in2="effect1_dropShadow_1" mode="normal" result="shape"></feBlend>
</filter>
<filter  color-interpolation-filters="sRGB" filterUnits="userSpaceOnUse" height="122" id="cardShadow" width="244" x="291" y="131">
	<feFlood  flood-opacity="0" result="BackgroundImageFix"></feFlood>
	<feGaussianBlur  in="BackgroundImageFix" stdDeviation="8"></feGaussianBlur>
	<feColorMatrix  in="SourceAlpha" result="hardAlpha" type="matrix" values="0 0 0 0 0 0 0 0 0 0 0 0 0 0 0 0 0 0 127 0">
		</feColorMatrix>
	<feOffset  dy="10"></feOffset>
	<feGaussianBlur  stdDeviation="18"></feGaussianBlur>
	<feColorMatrix  type="matrix" values="0 0 0 0 0.0313726 0 0 0 0 0.203922 0 0 0 0 0.501961 0 0 0 0.12 0"></feColorMatrix>
	<feBlend  in2="BackgroundImageFix" mode="normal" result="effect1_dropShadow_1"></feBlend>
	<feBlend  in="SourceGraphic" in2="effect1_dropShadow_1" mode="normal" result="shape"></feBlend>
</filter>
<path class="st0" d="M24,0h1056c13.3,0,24,10.7,24,24v336c0,13.3-10.7,24-24,24H24c-13.3,0-24-10.7-24-24V24C0,10.7,10.7,0,24,0z"/>
<radialGradient id="SVGID_1_" cx="156.3487" cy="587.9697" r="1" gradientTransform="matrix(9.307316e-15 152 212 -1.298126e-14 -124097.5703 -23573)" gradientUnits="userSpaceOnUse">
	<stop  offset="0" style="stop-color:#7FBCFF;stop-opacity:0.58"/>
	<stop  offset="0.58" style="stop-color:#2E86F0;stop-opacity:0.24"/>
	<stop  offset="1" style="stop-color:#2E86F0;stop-opacity:0"/>
</radialGradient>
<ellipse class="st1" cx="552" cy="192" rx="212" ry="152"/>
<path class="st2" d="M132,192h840"/>
<path class="st3" d="M378,94c-52,0-88,34-88,96s36,96,88,96"/>
<path class="st3" d="M726,94c52,0,88,34,88,96s-36,96-88,96"/>
<path class="st4" d="M378,94c76,0,114,37,114,98"/>
<path class="st4" d="M726,94c-76,0-114,37-114,98"/>
<path class="st4" d="M378,286c76,0,114-37,114-94"/>
<path class="st4" d="M726,286c-76,0-114-37-114-94"/>
<g class="st5">
	
		<linearGradient id="SVGID_00000018233654077875261810000008557614284928779170_" gradientUnits="userSpaceOnUse" x1="154.4236" y1="587.4196" x2="154.4236" y2="586.4196" gradientTransform="matrix(144 0 0 -160 -21685 94099.125)">
		<stop  offset="0" style="stop-color:#FFFFFF"/>
		<stop  offset="1" style="stop-color:#F3F8FF"/>
	</linearGradient>
	<path style="fill:url(#SVGID_00000018233654077875261810000008557614284928779170_);" d="M514,112h76c18.8,0,34,15.2,34,34v92
		c0,18.8-15.2,34-34,34h-76c-18.8,0-34-15.2-34-34v-92C480,127.2,495.2,112,514,112z"/>
	<path class="st7" d="M514,113.2h76c18.1,0,32.8,14.7,32.8,32.8v92c0,18.1-14.7,32.7-32.8,32.7h-76c-18.1,0-32.8-14.7-32.8-32.7v-92
		C481.2,127.9,495.9,113.2,514,113.2z"/>
</g>
<linearGradient id="SVGID_00000039836087011349337080000017254709345534983598_" gradientUnits="userSpaceOnUse" x1="153.9384" y1="584.7585" x2="154.9384" y2="583.7585" gradientTransform="matrix(146 0 0 -52 -22120 30457.4414)">
	<stop  offset="0" style="stop-color:#F9FBFF"/>
	<stop  offset="1" style="stop-color:#E7F1FF"/>
</linearGradient>
<path style="fill:url(#SVGID_00000039836087011349337080000017254709345534983598_);" d="M371,50h114c8.8,0,16,7.2,16,16v20
	c0,8.8-7.2,16-16,16H371c-8.8,0-16-7.2-16-16V66C355,57.2,362.2,50,371,50z"/>
<path class="st9" d="M371,51.2h114c8.1,0,14.8,6.6,14.8,14.8v20c0,8.1-6.6,14.8-14.8,14.8H371c-8.1,0-14.8-6.6-14.8-14.8V66
	C356.2,57.9,362.9,51.2,371,51.2z"/>
<g class="st10">
	<path class="st11" d="M395.1,80.3v-7.8h-2.8v-1.6h7.5v1.6H397v7.8H395.1z"/>
	<path class="st11" d="M403.2,75.6c0-1,0.1-1.8,0.4-2.4c0.2-0.5,0.5-0.9,0.9-1.3c0.4-0.4,0.8-0.7,1.2-0.8c0.6-0.2,1.3-0.4,2-0.4
		c1.4,0,2.5,0.4,3.3,1.3c0.8,0.9,1.3,2.1,1.3,3.6c0,1.5-0.4,2.7-1.2,3.6c-0.8,0.9-1.9,1.3-3.3,1.3c-1.4,0-2.5-0.4-3.3-1.3
		C403.6,78.3,403.2,77.1,403.2,75.6z M405.2,75.6c0,1.1,0.2,1.9,0.7,2.4s1.1,0.8,1.9,0.8s1.4-0.3,1.9-0.8c0.5-0.5,0.7-1.4,0.7-2.5
		c0-1.1-0.2-1.9-0.7-2.4s-1.1-0.8-1.9-0.8c-0.8,0-1.4,0.3-1.9,0.8S405.2,74.5,405.2,75.6z"/>
	<path class="st11" d="M416.8,70.8h1.9v4c0.4,0,0.7-0.2,0.9-0.3c0.2-0.2,0.4-0.7,0.7-1.5c0.4-1,0.8-1.7,1.2-1.9
		c0.4-0.2,1-0.4,1.9-0.4c0,0,0.1,0,0.3,0v1.4l-0.3,0c-0.4,0-0.7,0-0.9,0.1c-0.2,0.1-0.3,0.2-0.4,0.4s-0.3,0.6-0.5,1.2
		c-0.1,0.3-0.2,0.6-0.4,0.8c-0.1,0.2-0.4,0.4-0.7,0.6c0.4,0.1,0.8,0.4,1.1,0.7c0.3,0.4,0.6,0.9,0.9,1.5l1.3,2.6h-2.2l-1.1-2.4
		c0,0-0.1-0.1-0.1-0.2c0,0-0.1-0.2-0.2-0.4c-0.2-0.5-0.4-0.8-0.6-0.9c-0.2-0.1-0.4-0.2-0.7-0.2v4.1h-1.9V70.8z"/>
	<path class="st11" d="M427.8,80.3v-9.4h7v1.6h-5.1v2.1h4.7v1.6h-4.7v2.6h5.3v1.6H427.8z"/>
	<path class="st11" d="M439.5,80.3v-9.4h1.9v3.7h3.7v-3.7h1.9v9.4h-1.9v-4.1h-3.7v4.1H439.5z"/>
	<path class="st11" d="M452,70.8h1.9v3.8h2.5c0.7,0,1.2,0.1,1.7,0.3c0.5,0.2,0.9,0.5,1.2,1c0.3,0.5,0.5,1,0.5,1.6
		c0,0.6-0.2,1.2-0.5,1.7c-0.3,0.5-0.7,0.8-1.1,0.9c-0.4,0.2-1,0.2-1.8,0.2H452V70.8z M453.9,78.7h1.9c0.6,0,1,0,1.2-0.1
		c0.2-0.1,0.4-0.2,0.6-0.4c0.2-0.2,0.3-0.5,0.3-0.8c0-0.4-0.1-0.7-0.4-0.9c-0.3-0.2-0.8-0.3-1.6-0.3h-1.9V78.7z M461,70.8h1.9v9.4
		H461V70.8z"/>
</g>
<linearGradient id="SVGID_00000087403734206281582020000001691563673943957913_" gradientUnits="userSpaceOnUse" x1="153.9935" y1="585.1663" x2="154.9935" y2="584.1663" gradientTransform="matrix(154 0 0 -58 -23017 34233.6445)">
	<stop  offset="0" style="stop-color:#F9FBFF"/>
	<stop  offset="1" style="stop-color:#E7F1FF"/>
</linearGradient>
<path style="fill:url(#SVGID_00000087403734206281582020000001691563673943957913_);" d="M714,294h122c8.8,0,16,7.2,16,16v26
	c0,8.8-7.2,16-16,16H714c-8.8,0-16-7.2-16-16v-26C698,301.2,705.2,294,714,294z"/>
<path class="st9" d="M714,295.2h122c8.1,0,14.8,6.6,14.8,14.8v26c0,8.1-6.6,14.8-14.8,14.8H714c-8.1,0-14.8-6.6-14.8-14.8v-26
	C699.2,301.9,705.9,295.2,714,295.2z"/>
<g class="st10">
	<path class="st11" d="M742.8,327.2v-7.7h-2.8v-1.6h7.4v1.6h-2.8v7.7H742.8z"/>
	<path class="st11" d="M759.2,327.2h-2l-0.8-2.1h-3.7l-0.8,2.1h-2l3.6-9.3h2L759.2,327.2z M755.7,323.5l-1.3-3.5l-1.3,3.5H755.7z"/>
	<path class="st11" d="M763.1,327.2v-9.3h3c1.1,0,1.9,0,2.2,0.1c0.5,0.1,1,0.4,1.3,0.9c0.4,0.5,0.5,1.1,0.5,1.8
		c0,0.6-0.1,1.1-0.3,1.4c-0.2,0.4-0.5,0.7-0.8,0.9c-0.3,0.2-0.6,0.4-1,0.4c-0.4,0.1-1.1,0.1-2,0.1h-1.2v3.5H763.1z M764.9,319.5v2.6
		h1c0.7,0,1.2,0,1.5-0.1c0.3-0.1,0.4-0.3,0.6-0.5c0.1-0.2,0.2-0.4,0.2-0.7c0-0.3-0.1-0.6-0.3-0.8s-0.5-0.4-0.8-0.4
		c-0.2,0-0.7-0.1-1.4-0.1H764.9z"/>
	<path class="st11" d="M774.7,317.9h1.8v6.2l3.8-6.2h1.9v9.3h-1.8v-6.1l-3.8,6.1h-1.9V317.9z"/>
	<path class="st11" d="M792.4,326.1v1.1h-1.8v-1.1c-1.5-0.1-2.5-0.4-3.2-1.1c-0.6-0.7-0.9-1.5-0.9-2.6c0-1.1,0.3-1.9,1-2.6
		c0.6-0.6,1.7-1,3.1-1.1v-0.9h1.8v0.9c1.5,0.1,2.5,0.4,3.1,1.1s0.9,1.5,0.9,2.6c0,1-0.3,1.9-0.9,2.6
		C795,325.7,793.9,326.1,792.4,326.1z M790.6,324.6v-4.2c-0.8,0-1.4,0.2-1.7,0.5c-0.4,0.4-0.5,0.9-0.5,1.6
		C788.3,323.9,789.1,324.6,790.6,324.6z M792.4,324.6c0.5,0,0.9-0.1,1.3-0.2c0.4-0.2,0.6-0.4,0.8-0.7c0.1-0.3,0.2-0.7,0.2-1.2
		c0-1.3-0.7-2-2.2-2V324.6z"/>
	<path class="st11" d="M800.9,317.9h1.9v3.7h2.5c0.7,0,1.2,0.1,1.7,0.3c0.5,0.2,0.9,0.5,1.2,1c0.3,0.5,0.5,1,0.5,1.6
		c0,0.6-0.2,1.2-0.5,1.6c-0.3,0.5-0.7,0.8-1.1,0.9c-0.4,0.1-1,0.2-1.8,0.2h-4.4V317.9z M802.8,325.7h1.8c0.6,0,1,0,1.2-0.1
		c0.2-0.1,0.4-0.2,0.6-0.4c0.2-0.2,0.3-0.5,0.3-0.7c0-0.4-0.1-0.7-0.4-0.9c-0.3-0.2-0.8-0.3-1.6-0.3h-1.9V325.7z M809.8,317.9h1.9
		v9.3h-1.9V317.9z"/>
</g>
<linearGradient id="SVGID_00000121271098592868830810000002659718764532836284_" gradientUnits="userSpaceOnUse" x1="152.8076" y1="586.446" x2="153.8869" y2="585.3667" gradientTransform="matrix(72 0 0 -90 -10489 52925.0703)">
	<stop  offset="0" style="stop-color:#4DA3FF"/>
	<stop  offset="1" style="stop-color:#005DE0"/>
</linearGradient>
<path style="fill:url(#SVGID_00000121271098592868830810000002659718764532836284_);" d="M533.1,150h37.8c13.1,0,23.6,8.7,23.6,19.3
	v48.3c0,10.7-10.6,19.3-23.6,19.3h-37.8c-13.1,0-23.6-8.7-23.6-19.3v-48.3C509.4,158.7,520,150,533.1,150z"/>
<circle class="st14" cx="553" cy="83" r="4"/>
<circle class="st15" cx="701" cy="160" r="7"/>
<circle class="st16" cx="673" cy="257" r="4.5"/>
<circle class="st16" cx="462" cy="257" r="7"/>
<circle class="st15" cx="406" cy="226" r="5.5"/>
<circle class="st15" cx="506" cy="126" r="4.5"/>
<circle class="st15" cx="627" cy="119" r="4.5"/>
<circle class="st15" cx="628" cy="191" r="3.5"/>
<circle class="st15" cx="550" cy="319" r="3.5"/>
<g>
	<circle class="st17" cx="392" cy="278" r="28"/>
	<circle class="st18" cx="392" cy="269" r="10"/>
	<path class="st18" d="M376,299c3-10,10-15,16-15s13,5,16,15"/>
</g>
<g>
	<circle class="st19" cx="497" cy="124" r="22"/>
	<circle class="st20" cx="497" cy="117" r="8"/>
	<path class="st20" d="M485,140c2-8,7-12,12-12s10,4,12,12"/>
</g>
<g>
	<circle class="st19" cx="657" cy="305" r="21"/>
	<circle class="st20" cx="657" cy="298" r="7.5"/>
	<path class="st20" d="M646,320c2-7,6-11,11-11s9,4,11,11"/>
</g>
<g>
	<circle class="st19" cx="286" cy="227" r="15"/>
	<circle class="st20" cx="286" cy="222" r="5.5"/>
	<path class="st20" d="M278,238c1-5,5-8,8-8s7,3,8,8"/>
</g>
<g>
	<circle class="st19" cx="811" cy="251" r="12"/>
	<circle class="st20" cx="811" cy="247" r="4.5"/>
	<path class="st20" d="M805,260c1-4,3-6,6-6s5,2,6,6"/>
</g>
<g>
	<circle class="st19" cx="829" cy="98" r="16"/>
	<circle class="st20" cx="829" cy="93" r="6"/>
	<path class="st20" d="M820,110c2-6,5-9,9-9s7,3,9,9"/>
</g>
<g>
	<circle class="st19" cx="306" cy="121" r="10"/>
	<circle class="st20" cx="306" cy="118" r="3.8"/>
	<path class="st20" d="M301,130c1-4,3-6,5-6s4,2,5,6"/>
</g>
<g>
	<defs>
		<filter id="Adobe_OpacityMaskFilter" filterUnits="userSpaceOnUse" x="533.4" y="173.2" width="38.1" height="38.1">
			<feColorMatrix  type="matrix" values="1 0 0 0 0  0 1 0 0 0  0 0 1 0 0  0 0 0 1 0"/>
		</filter>
	</defs>
	
		<mask maskUnits="userSpaceOnUse" x="533.4" y="173.2" width="38.1" height="38.1" id="mask0_2122_670_00000137126756579296750920000018185568583671434160_">
		<path class="st21" d="M571.6,173.2h-38.1v38.1h38.1V173.2z"/>
	</mask>
	<g class="st22">
		<path class="st23" d="M553.2,211.3h-1.5c-4.2,0-7.3,0-9.7-0.3c-1.3-0.2-2.4-0.4-3.3-0.8c-1-0.4-1.8-1-2.5-1.7
			c-0.7-0.7-1.3-1.5-1.7-2.5c-0.4-0.9-0.6-2-0.8-3.3c-0.3-2.4-0.3-5.5-0.3-9.7v-1.5c0-4.2,0-7.3,0.3-9.7c0.2-1.3,0.4-2.4,0.8-3.3
			c0.4-1,1-1.8,1.7-2.5c0.7-0.7,1.5-1.3,2.5-1.7c0.9-0.4,2-0.6,3.3-0.8c2.4-0.3,5.5-0.3,9.7-0.3h1.5c4.2,0,7.3,0,9.7,0.3
			c1.3,0.2,2.4,0.4,3.3,0.8c1,0.4,1.8,1,2.5,1.7c0.7,0.7,1.3,1.5,1.7,2.5c0.4,0.9,0.6,2,0.8,3.3c0.3,2.4,0.3,5.5,0.3,9.7v1.5
			c0,4.2,0,7.3-0.3,9.7c-0.2,1.3-0.4,2.4-0.8,3.3c-0.4,1-1,1.8-1.7,2.5c-0.7,0.7-1.5,1.3-2.5,1.7c-0.9,0.4-2,0.6-3.3,0.8
			C560.5,211.3,557.4,211.3,553.2,211.3z M551.8,174.9c-8,0-12,0-14.3,2.3c-2.3,2.3-2.3,6.3-2.3,14.3v1.5c0,8,0,12,2.3,14.3
			c2.3,2.3,6.3,2.3,14.3,2.3h1.5c8,0,12,0,14.3-2.3c2.3-2.3,2.3-6.3,2.3-14.3v-1.5c0-8,0-12-2.3-14.3c-2.3-2.3-6.3-2.3-14.3-2.3
			H551.8z"/>
		<path class="st23" d="M548.6,198.8l-3.8-6.6l3.8-6.6h5.6l3.2-5.5h-11.9l-7,12.1l7,12.1h11.9l-3.2-5.5H548.6z"/>
		<path class="st23" d="M566.4,192.2l-6,10.5l-3.2-5.5l2.9-5l-2.9-5l3.2-5.5L566.4,192.2z"/>
	</g>
</g>
<g class="st24">
	<g class="st10">
		<path class="st25" d="M646.4,185.2h8.4v10.5h-2.1V187h-4.1v8.8h-2.1V185.2z"/>
		<path class="st25" d="M660.1,195.8v-10.5h7.8v1.8h-5.7v2.3h5.3v1.8h-5.3v2.9h5.9v1.8H660.1z"/>
		<path class="st25" d="M673,195.8v-10.5h3.4c1.3,0,2.1,0.1,2.5,0.2c0.6,0.2,1.1,0.5,1.5,1c0.4,0.5,0.6,1.2,0.6,2.1
			c0,0.6-0.1,1.2-0.4,1.6c-0.2,0.4-0.5,0.8-0.9,1c-0.4,0.3-0.7,0.4-1.1,0.5c-0.5,0.1-1.2,0.2-2.2,0.2h-1.4v4H673z M675.1,187v3h1.2
			c0.8,0,1.4-0.1,1.7-0.2c0.3-0.1,0.5-0.3,0.7-0.5c0.2-0.2,0.2-0.5,0.2-0.8c0-0.4-0.1-0.7-0.3-0.9c-0.2-0.2-0.5-0.4-0.9-0.5
			c-0.3,0-0.8-0.1-1.5-0.1H675.1z"/>
		<path class="st25" d="M685.9,195.8v-10.5h7.8v1.8H688v2.3h5.3v1.8H688v2.9h5.9v1.8H685.9z"/>
		<path class="st25" d="M698.8,185.2h4.2c0.8,0,1.5,0,1.9,0.1c0.4,0.1,0.8,0.2,1.1,0.4c0.3,0.2,0.6,0.5,0.8,0.9
			c0.2,0.4,0.3,0.8,0.3,1.2c0,0.5-0.1,0.9-0.4,1.4c-0.3,0.4-0.6,0.7-1.1,0.9c0.6,0.2,1.1,0.5,1.5,1c0.3,0.5,0.5,1,0.5,1.6
			c0,0.5-0.1,0.9-0.3,1.4c-0.2,0.5-0.5,0.8-0.9,1.1c-0.4,0.3-0.9,0.4-1.4,0.5c-0.4,0-1.2,0.1-2.6,0.1h-3.6V185.2z M700.9,187v2.4
			h1.4c0.8,0,1.3,0,1.5,0c0.4,0,0.7-0.2,0.9-0.4c0.2-0.2,0.3-0.5,0.3-0.8c0-0.3-0.1-0.6-0.3-0.8c-0.2-0.2-0.4-0.3-0.8-0.4
			c-0.2,0-0.8,0-1.8,0H700.9z M700.9,191.2v2.8h2c0.8,0,1.3,0,1.5-0.1c0.3-0.1,0.6-0.2,0.8-0.4c0.2-0.2,0.3-0.5,0.3-0.9
			c0-0.3-0.1-0.6-0.2-0.8c-0.2-0.2-0.4-0.4-0.7-0.5c-0.3-0.1-0.9-0.2-1.9-0.2H700.9z"/>
		<path class="st25" d="M711.7,190.6c0-1.1,0.2-2,0.5-2.7c0.2-0.5,0.6-1,1-1.4c0.4-0.4,0.9-0.7,1.4-0.9c0.7-0.3,1.4-0.4,2.3-0.4
			c1.6,0,2.8,0.5,3.7,1.4c0.9,1,1.4,2.3,1.4,4c0,1.7-0.5,3-1.4,4c-0.9,1-2.2,1.4-3.7,1.4c-1.6,0-2.8-0.5-3.7-1.4
			C712.2,193.6,711.7,192.3,711.7,190.6z M713.9,190.5c0,1.2,0.3,2.1,0.8,2.7c0.6,0.6,1.3,0.9,2.1,0.9c0.8,0,1.5-0.3,2.1-0.9
			c0.5-0.6,0.8-1.5,0.8-2.8c0-1.2-0.3-2.1-0.8-2.7c-0.5-0.6-1.2-0.9-2.1-0.9c-0.9,0-1.6,0.3-2.1,0.9
			C714.2,188.4,713.9,189.3,713.9,190.5z"/>
		<path class="st25" d="M727.4,185.2h7.3v8.8h0.9v4.1h-1.8v-2.3h-6.6v2.3h-1.8V194h0.9c0.4-0.9,0.7-1.9,0.9-3.1
			c0.1-1.2,0.2-2.7,0.2-4.5V185.2z M729.4,187c0,3.2-0.3,5.5-0.9,7h4v-7H729.4z"/>
		<path class="st25" d="M739.7,185.2h2.1v2.5c0,0.8,0,1.4,0.1,1.6c0.1,0.3,0.2,0.5,0.5,0.7c0.3,0.2,0.7,0.3,1.3,0.3
			c0.5,0,0.9,0,1.2-0.1c0.4-0.1,0.7-0.2,0.9-0.4v-4.5h2.1v10.5h-2.1v-4.2c-0.4,0.2-0.9,0.3-1.3,0.4c-0.4,0.1-0.8,0.1-1.2,0.1
			c-1,0-1.9-0.2-2.6-0.7c-0.7-0.5-1.1-1.4-1.1-2.6V185.2z"/>
		<path class="st25" d="M753.4,185.2h2v7l4.3-7h2.1v10.5h-2v-6.9l-4.3,6.9h-2.1V185.2z"/>
		<path class="st25" d="M767.1,185.2h2.1v4.5c0.5,0,0.8-0.2,1-0.4c0.2-0.2,0.4-0.7,0.8-1.6c0.4-1.1,0.9-1.8,1.3-2.1
			c0.4-0.3,1.2-0.4,2.1-0.4c0,0,0.2,0,0.3,0v1.6l-0.3,0c-0.4,0-0.8,0.1-1,0.2c-0.2,0.1-0.4,0.3-0.5,0.5c-0.1,0.2-0.3,0.7-0.6,1.4
			c-0.1,0.4-0.3,0.7-0.4,0.9c-0.2,0.2-0.4,0.5-0.8,0.7c0.5,0.1,0.9,0.4,1.2,0.8c0.3,0.4,0.6,1,1,1.7l1.4,2.9h-2.5l-1.3-2.7
			c0,0-0.1-0.1-0.1-0.2c0,0-0.1-0.2-0.3-0.5c-0.3-0.5-0.5-0.8-0.7-1c-0.2-0.1-0.4-0.2-0.8-0.2v4.6h-2.1V185.2z"/>
	</g>
</g>
<g class="st26">
	<g class="st10">
		<path class="st25" d="M328.6,186.8h2.1v4.3c0.5,0,0.8-0.2,0.9-0.4c0.2-0.2,0.4-0.7,0.8-1.6c0.4-1.1,0.9-1.8,1.3-2.1
			c0.4-0.3,1.1-0.4,2.1-0.4c0,0,0.1,0,0.3,0v1.5l-0.3,0c-0.4,0-0.7,0.1-0.9,0.2c-0.2,0.1-0.4,0.3-0.5,0.5c-0.1,0.2-0.3,0.7-0.5,1.3
			c-0.1,0.4-0.3,0.6-0.4,0.9c-0.1,0.2-0.4,0.5-0.8,0.7c0.5,0.1,0.8,0.4,1.1,0.8c0.3,0.4,0.6,1,1,1.7l1.4,2.8h-2.4l-1.2-2.6
			c0,0-0.1-0.1-0.1-0.2c0,0-0.1-0.2-0.3-0.5c-0.3-0.5-0.5-0.8-0.7-0.9c-0.2-0.1-0.4-0.2-0.8-0.2v4.5h-2.1V186.8z"/>
		<path class="st25" d="M339.8,192c0-1,0.2-1.9,0.5-2.6c0.2-0.5,0.5-1,1-1.4c0.4-0.4,0.8-0.7,1.3-0.9c0.6-0.3,1.4-0.4,2.2-0.4
			c1.5,0,2.7,0.5,3.6,1.4c0.9,0.9,1.4,2.2,1.4,3.9c0,1.6-0.4,2.9-1.3,3.9c-0.9,0.9-2.1,1.4-3.6,1.4c-1.5,0-2.7-0.5-3.6-1.4
			C340.3,194.9,339.8,193.6,339.8,192z M341.9,191.9c0,1.2,0.3,2,0.8,2.6c0.5,0.6,1.2,0.9,2,0.9s1.5-0.3,2-0.9
			c0.5-0.6,0.8-1.5,0.8-2.7c0-1.2-0.3-2-0.8-2.6c-0.5-0.6-1.2-0.9-2-0.9s-1.5,0.3-2.1,0.9C342.2,189.9,341.9,190.8,341.9,191.9z"/>
		<path class="st25" d="M354.3,197.1v-10.2h2.1v4h4v-4h2.1v10.2h-2.1v-4.5h-4v4.5H354.3z"/>
		<path class="st25" d="M374.2,193.3l2,0.6c-0.3,1.1-0.8,1.9-1.5,2.5c-0.7,0.5-1.6,0.8-2.7,0.8c-1.4,0-2.5-0.5-3.3-1.4
			c-0.9-0.9-1.3-2.2-1.3-3.8c0-1.7,0.4-3,1.3-4c0.9-0.9,2-1.4,3.5-1.4c1.2,0,2.3,0.4,3,1.1c0.5,0.4,0.8,1.1,1,1.9l-2,0.5
			c-0.1-0.5-0.4-0.9-0.8-1.3c-0.4-0.3-0.8-0.5-1.4-0.5c-0.8,0-1.4,0.3-1.8,0.8c-0.5,0.5-0.7,1.4-0.7,2.6c0,1.3,0.2,2.2,0.7,2.8
			c0.5,0.5,1.1,0.8,1.8,0.8c0.5,0,1-0.2,1.4-0.5C373.7,194.6,374,194,374.2,193.3z"/>
		<path class="st25" d="M382.9,197.1v-8.5h-3v-1.7h8.1v1.7h-3v8.5H382.9z"/>
		<path class="st25" d="M392.3,197.1v-10.2h3.3c1.3,0,2.1,0.1,2.5,0.2c0.6,0.2,1.1,0.5,1.5,1c0.4,0.5,0.6,1.2,0.6,2
			c0,0.6-0.1,1.2-0.3,1.6c-0.2,0.4-0.5,0.8-0.9,1c-0.4,0.2-0.7,0.4-1.1,0.5c-0.5,0.1-1.2,0.1-2.1,0.1h-1.3v3.9H392.3z M394.4,188.6
			v2.9h1.1c0.8,0,1.4-0.1,1.6-0.2c0.3-0.1,0.5-0.3,0.6-0.5c0.2-0.2,0.2-0.5,0.2-0.8c0-0.4-0.1-0.7-0.3-0.9c-0.2-0.2-0.5-0.4-0.8-0.5
			c-0.2,0-0.7-0.1-1.5-0.1H394.4z"/>
		<path class="st25" d="M403.6,186.8h2.3l2.4,5.3l2-5.3h2.2l-3.5,7.8c-0.4,0.8-0.8,1.5-1.2,1.9c-0.4,0.4-0.9,0.7-1.5,0.7
			c-0.6,0-1.1,0-1.4-0.1v-1.5c0.3,0,0.6,0,0.8,0c0.5,0,0.8-0.1,1-0.3c0.2-0.2,0.4-0.5,0.6-1.1L403.6,186.8z"/>
		<path class="st25" d="M416.6,186.8h2.1v4.3c0.5,0,0.8-0.2,0.9-0.4c0.2-0.2,0.4-0.7,0.8-1.6c0.4-1.1,0.9-1.8,1.3-2.1
			c0.4-0.3,1.1-0.4,2.1-0.4c0,0,0.1,0,0.3,0v1.5l-0.3,0c-0.4,0-0.7,0.1-0.9,0.2c-0.2,0.1-0.4,0.3-0.5,0.5c-0.1,0.2-0.3,0.7-0.5,1.3
			c-0.1,0.4-0.3,0.6-0.4,0.9c-0.1,0.2-0.4,0.5-0.8,0.7c0.5,0.1,0.8,0.4,1.1,0.8c0.3,0.4,0.6,1,1,1.7l1.4,2.8h-2.4l-1.2-2.6
			c0,0-0.1-0.1-0.1-0.2c0,0-0.1-0.2-0.3-0.5c-0.3-0.5-0.5-0.8-0.7-0.9c-0.2-0.1-0.4-0.2-0.8-0.2v4.5h-2.1V186.8z"/>
		<path class="st25" d="M430.9,197.1v-8.5h-3v-1.7h8.1v1.7h-3v8.5H430.9z"/>
		<path class="st25" d="M439.5,192c0-1,0.2-1.9,0.5-2.6c0.2-0.5,0.5-1,1-1.4c0.4-0.4,0.8-0.7,1.3-0.9c0.6-0.3,1.4-0.4,2.2-0.4
			c1.5,0,2.7,0.5,3.6,1.4c0.9,0.9,1.4,2.2,1.4,3.9c0,1.6-0.4,2.9-1.3,3.9c-0.9,0.9-2.1,1.4-3.6,1.4c-1.5,0-2.7-0.5-3.6-1.4
			C440,194.9,439.5,193.6,439.5,192z M441.7,191.9c0,1.2,0.3,2,0.8,2.6c0.5,0.6,1.2,0.9,2,0.9s1.5-0.3,2-0.9
			c0.5-0.6,0.8-1.5,0.8-2.7c0-1.2-0.3-2-0.8-2.6c-0.5-0.6-1.2-0.9-2-0.9s-1.5,0.3-2.1,0.9C441.9,189.9,441.7,190.8,441.7,191.9z"/>
		<path class="st25" d="M454,197.1v-10.2h3.3c1.3,0,2.1,0.1,2.5,0.2c0.6,0.2,1.1,0.5,1.5,1c0.4,0.5,0.6,1.2,0.6,2
			c0,0.6-0.1,1.2-0.3,1.6c-0.2,0.4-0.5,0.8-0.9,1c-0.4,0.2-0.7,0.4-1.1,0.5c-0.5,0.1-1.2,0.1-2.1,0.1h-1.3v3.9H454z M456.1,188.6
			v2.9h1.1c0.8,0,1.4-0.1,1.6-0.2c0.3-0.1,0.5-0.3,0.6-0.5c0.2-0.2,0.2-0.5,0.2-0.8c0-0.4-0.1-0.7-0.3-0.9c-0.2-0.2-0.5-0.4-0.8-0.5
			c-0.2,0-0.7-0.1-1.5-0.1H456.1z"/>
	</g>
</g>
</svg>
